<svg xmlns="http://www.w3.org/2000/svg" viewBox="0 0 64 64"><path fill="#1397de" d="m62 20.9-8 .1c1.4-3.1 2.5-6.2 2.3-9.8 0-1-1.1-1.4-1.9-.8-2.2 1.8-4.7 3.2-7 5-1.8-1.7-3.9-3-6-3.8 1.1-3.4 0-8.7-2.9-10.8-2.8-2-4.5.2-5.3 2.9-.9-1.5-2-2.6-3.9-2.6s-2.6 1.6-2.8 3.3c-.6-.5-1.3-.8-2.2-.8-1.6 0-2.9 1.6-3.4 3-1.3 3.8.4 9 5 9.1-9 9-7.9 27-23.7 27.2-.7 0-1.1.5-1.2 1a.9.9 0 0 0 0 .8 1.2 1.2 0 0 0 .2.4c3.8 7 12.2 9.6 20.4 10.2 0 1.4-.1 2.7-.6 4a8.6 8.6 0 0 0-4.1 3c-.8 1 .6 2 1.5 1.6l2.3-1.3 1.4-.8.2.2c.8.6 1.7 1.4 2.7 1a1 1 0 0 0 .5-1c0-.4-.2-.7-.5-1a.9.9 0 0 0-.7-.2l-1.3-1c.2-1.5.2-3 0-4.4a66.7 66.7 0 0 0 13.2-.8c.3 1.2.2 2.5.4 3.7l-.2.2c-.6 1-1.5 1.6-2.1 2.6-.6.9.5 2.1 1.5 1.5.7-.5 1.2-1.1 1.7-1.8.8 1.1 2 2.4 3 2 .6-.2.9-1 .3-1.6.7.8 0-.1 0-.2a24 24 0 0 1-1-1l-1-1v-.7c-.3-1.3-.5-2.8-1-4.1A21.7 21.7 0 0 0 55 31.6a20 20 0 0 0 8-9c.5-.7 0-1.7-1-1.7z"/></svg>
