<svg xmlns="http://www.w3.org/2000/svg" viewBox="0 0 64 64"><path fill="#1397de" d="M5 0a4.99 4.99 0 0 0-5 5v54a4.99 4.99 0 0 0 5 5h54a4.99 4.99 0 0 0 5-5V5a4.99 4.99 0 0 0-5-5H5zm3 4a4 4 0 1 1 0 8 4 4 0 1 1 0-8zm12 0a4 4 0 1 1 0 8 4 4 0 1 1 0-8zm12 0a4 4 0 1 1 0 8 4 4 0 1 1 0-8zm12 0a4 4 0 1 1 0 8 4 4 0 1 1 0-8zm12 0a4 4 0 1 1 0 8 4 4 0 1 1 0-8zM8 16a4 4 0 1 1 0 8 4 4 0 1 1 0-8zm12 0a4 4 0 1 1 0 8 4 4 0 1 1 0-8zm12 0a4 4 0 1 1 0 8 4 4 0 1 1 0-8zm12 0a4 4 0 1 1 0 8 4 4 0 1 1 0-8zm12 0a4 4 0 1 1 0 8 4 4 0 1 1 0-8zM8 28a4 4 0 1 1 0 8 4 4 0 1 1 0-8zm12 0a4 4 0 1 1 0 8 4 4 0 1 1 0-8zm12 0a4 4 0 1 1 0 8 4 4 0 1 1 0-8zm12 0a4 4 0 1 1 0 8 4 4 0 1 1 0-8zm12 0a4 4 0 1 1 0 8 4 4 0 1 1 0-8zM8 40a4 4 0 1 1 0 8 4 4 0 1 1 0-8zm12 0a4 4 0 1 1 0 8 4 4 0 1 1 0-8zm12 0a4 4 0 1 1 0 8 4 4 0 1 1 0-8zm12 0a4 4 0 1 1 0 8 4 4 0 1 1 0-8zm12 0a4 4 0 1 1 0 8 4 4 0 1 1 0-8zM8 52a4 4 0 1 1 0 8 4 4 0 1 1 0-8zm12 0a4 4 0 1 1 0 8 4 4 0 1 1 0-8zm12 0a4 4 0 1 1 0 8 4 4 0 1 1 0-8zm12 0a4 4 0 1 1 0 8 4 4 0 1 1 0-8zm12 0a4 4 0 1 1 0 8 4 4 0 1 1 0-8z"/></svg>
